<?xml version="1.0" standalone="no"?>
<!DOCTYPE svg PUBLIC "-//W3C//DTD SVG 20010904//EN"
 "http://www.w3.org/TR/2001/REC-SVG-20010904/DTD/svg10.dtd">
<svg version="1.0" xmlns="http://www.w3.org/2000/svg"
 width="128.000000pt" height="128.000000pt" viewBox="0 0 128.000000 128.000000"
 preserveAspectRatio="xMidYMid meet">

<rect width="100%" height="100%" fill="#23cdfc"/>
<g transform="translate(0.000000,128.000000) scale(0.100000,-0.100000)"
fill="#000000" stroke="none" >
<path d="M0 640 l0 -640 640 0 640 0 0 640 0 640 -640 0 -640 0 0 -640z m409
426 c51 -26 100 -76 127 -129 35 -67 44 -128 43 -297 l-1 -165 202 -5 c187 -5
203 -6 217 -25 32 -44 -15 -147 -81 -179 -32 -15 -69 -17 -300 -15 l-263 2 -6
165 c-9 215 -9 657 0 665 9 10 8 10 62 -17z"  />
</g>
</svg>
